<?xml version="1.0" encoding="UTF-8" standalone="no"?>
<!DOCTYPE svg PUBLIC "-//W3C//DTD SVG 1.1//EN" "http://www.w3.org/Graphics/SVG/1.1/DTD/svg11.dtd">
<svg xmlns="http://www.w3.org/2000/svg" version="1.1" viewBox="0.00 0.00 217.00 336.00">
<clipPath id="clipping-path-0">
<path d="
  M 0.00 0.00
  L 217.00 0.00
  L 217.00 336.00
  L 0.00 336.00
  L 0.00 0.00
  Z"/>
</clipPath>
<g stroke-width="2.00" fill="none" stroke-linecap="butt" clip-path="url(#clipping-path-0)">
<path stroke="#8ba4c5" vector-effect="non-scaling-stroke" d="
  M 155.42 28.65
  A 0.90 0.90 0.0 0 0 154.74 29.47
  L 154.11 38.69
  A 0.90 0.90 0.0 0 0 155.23 39.63
  L 178.30 33.80
  A 0.90 0.90 0.0 0 0 178.98 32.95
  L 179.23 24.07
  A 0.90 0.90 0.0 0 0 178.12 23.17
  L 155.42 28.65"
/>
<path stroke="#8ba4c5" vector-effect="non-scaling-stroke" d="
  M 132.80 66.86
  C 148.49 60.64 164.14 55.56 180.70 52.53
  Q 182.66 52.17 182.75 50.11
  Q 182.93 46.25 182.94 42.21
  Q 182.95 41.00 181.77 41.23
  Q 157.64 45.89 133.42 54.53
  Q 132.72 54.78 132.44 55.46
  Q 132.11 56.25 132.05 57.13
  Q 131.76 61.82 131.73 66.13
  A 0.78 0.78 0.0 0 0 132.80 66.86"
/>
<path stroke="#8ba4c5" vector-effect="non-scaling-stroke" d="
  M 124.46 91.68
  Q 125.72 91.37 126.89 90.78
  C 146.34 80.91 168.04 72.84 189.39 71.26
  A 1.45 1.45 0.0 0 0 190.73 69.86
  L 191.08 60.28
  A 0.77 0.76 -1.9 0 0 190.23 59.49
  C 167.69 61.97 146.34 69.37 125.36 78.92
  A 1.90 1.90 0.0 0 0 124.25 80.55
  L 123.69 91.05
  A 0.62 0.62 0.0 0 0 124.46 91.68"
/>
<path stroke="#ffffe7" vector-effect="non-scaling-stroke" d="
  M 127.87 110.67
  Q 128.88 110.37 129.08 112.73
  Q 129.17 113.81 128.85 114.98
  Q 128.26 117.14 127.24 119.51"
/>
<path stroke="#f7dc98" vector-effect="non-scaling-stroke" d="
  M 127.24 119.51
  L 119.00 123.67
  A 2.20 2.18 82.3 0 0 117.85 125.19
  Q 116.72 130.89 117.67 136.99"
/>
<path stroke="#ffffe7" vector-effect="non-scaling-stroke" d="
  M 117.67 136.99
  L 118.40 144.94"
/>
<path stroke="#f7dc98" vector-effect="non-scaling-stroke" d="
  M 118.40 144.94
  Q 106.78 151.35 94.72 157.66
  C 90.34 159.95 91.53 166.82 91.64 170.80
  A 0.76 0.76 0.0 0 0 92.67 171.48
  Q 96.50 170.02 99.68 167.97
  C 102.16 166.36 104.82 165.22 107.35 163.77
  Q 123.51 154.46 138.78 146.82
  Q 149.18 141.61 156.52 138.95
  Q 172.59 133.13 189.37 132.63
  A 2.13 2.12 4.8 0 0 191.39 130.93
  Q 192.64 124.63 191.31 120.05"
/>
<path stroke="#ffffe7" vector-effect="non-scaling-stroke" d="
  M 191.31 120.05
  Q 189.05 117.95 189.21 114.74
  Q 189.24 114.25 189.57 113.87
  Q 190.50 112.83 191.71 112.14"
/>
<path stroke="#f7dc98" vector-effect="non-scaling-stroke" d="
  M 191.71 112.14
  C 193.59 112.59 194.77 112.08 195.21 110.11
  Q 196.66 103.62 194.23 99.33"
/>
<path stroke="#ffffe7" vector-effect="non-scaling-stroke" d="
  M 194.23 99.33
  L 190.58 88.90"
/>
<path stroke="#f7dc98" vector-effect="non-scaling-stroke" d="
  M 190.58 88.90
  L 190.90 80.68
  Q 190.97 78.93 189.23 79.14
  Q 173.62 80.97 160.23 85.05
  Q 147.19 89.01 129.62 97.59
  Q 128.91 97.94 128.39 98.54
  Q 127.82 99.20 127.74 100.00
  Q 127.48 102.90 127.87 110.67"
/>
<path stroke="#f6dc7f" vector-effect="non-scaling-stroke" d="
  M 190.58 88.90
  Q 190.99 91.22 187.35 91.51
  Q 179.21 92.16 171.27 94.07
  Q 159.45 96.91 148.16 101.39
  Q 141.51 104.03 127.87 110.67"
/>
<path stroke="#f6dc7f" vector-effect="non-scaling-stroke" d="
  M 194.23 99.33
  Q 176.59 100.06 162.01 104.81
  Q 145.60 110.17 127.24 119.51"
/>
<path stroke="#f6dc7f" vector-effect="non-scaling-stroke" d="
  M 191.71 112.14
  Q 186.62 111.73 181.49 112.39
  Q 172.85 113.49 164.52 116.05
  Q 146.72 121.53 130.31 130.34
  Q 124.39 133.51 117.67 136.99"
/>
<path stroke="#f6dc7f" vector-effect="non-scaling-stroke" d="
  M 191.31 120.05
  Q 176.23 120.16 164.50 124.03
  C 147.67 129.59 135.73 135.80 118.40 144.94"
/>
<path stroke="#eba497" vector-effect="non-scaling-stroke" d="
  M 29.23 211.23
  C 44.02 212.71 59.58 208.60 73.25 202.67
  C 91.47 194.77 108.27 184.87 125.76 175.24
  C 139.48 167.70 154.34 160.60 169.10 156.96
  Q 181.14 153.99 195.46 154.97
  A 1.55 1.55 0.0 0 0 197.11 153.49
  L 197.55 143.63
  A 1.65 1.65 0.0 0 0 196.12 141.93
  C 183.86 140.30 170.18 142.93 158.58 147.22
  Q 143.06 152.97 126.64 162.14
  Q 110.10 171.38 93.50 180.50
  Q 73.94 191.24 54.94 196.20
  Q 42.61 199.41 30.26 198.17
  A 1.24 1.23 -81.2 0 0 28.93 199.15
  L 26.76 209.76
  A 1.00 1.00 0.0 0 0 27.48 210.92
  Q 28.33 211.14 29.23 211.23"
/>
<path stroke="#eba497" vector-effect="non-scaling-stroke" d="
  M 152.18 171.14
  Q 136.06 177.80 121.31 186.06
  C 99.84 198.08 77.88 210.99 54.57 217.52
  Q 35.85 222.77 18.26 218.12
  A 1.55 1.54 -76.5 0 0 16.35 219.30
  L 14.36 228.76
  A 1.60 1.60 0.0 0 0 15.54 230.64
  Q 28.28 233.79 41.63 231.89
  C 59.14 229.39 76.61 222.67 92.25 214.50
  Q 111.63 204.36 130.51 194.21
  C 137.45 190.48 144.91 187.12 152.38 183.95
  C 169.52 176.70 187.85 173.46 205.73 179.29
  A 1.33 1.33 0.0 0 0 207.46 178.21
  Q 208.11 173.52 207.84 168.72
  Q 207.70 166.27 204.99 165.54
  C 187.03 160.63 169.08 164.15 152.18 171.14"
/>
<path stroke="#eba497" vector-effect="non-scaling-stroke" d="
  M 45.29 239.59
  Q 32.67 241.55 20.33 240.12
  A 1.38 1.38 0.0 0 0 18.83 241.19
  Q 17.67 246.49 17.18 251.91
  Q 17.05 253.24 18.39 253.10
  C 20.88 252.83 23.27 253.33 25.77 253.32
  Q 46.63 253.24 66.54 246.07
  Q 85.49 239.25 96.97 233.39
  Q 114.39 224.50 133.29 215.15
  C 146.47 208.64 156.43 204.23 169.10 201.03
  Q 184.71 197.09 200.25 200.34
  A 1.18 1.18 0.0 0 0 201.67 199.22
  Q 201.81 193.63 201.76 188.63
  Q 201.75 186.89 199.96 186.56
  Q 185.37 183.84 172.36 186.74
  C 157.79 189.98 143.87 196.09 130.82 203.03
  Q 111.34 213.39 93.42 222.67
  C 78.60 230.35 61.59 237.05 45.29 239.59"
/>
<path stroke="#8eb89a" vector-effect="non-scaling-stroke" d="
  M 17.14 273.67
  Q 41.69 273.12 64.79 265.91
  C 90.12 258.01 114.46 245.32 139.31 233.89
  C 156.51 225.97 174.04 220.16 193.12 220.78
  A 0.84 0.84 0.0 0 0 193.99 219.97
  L 194.31 208.76
  A 1.16 1.16 0.0 0 0 193.23 207.57
  C 182.44 206.77 171.95 208.26 161.54 211.66
  Q 146.82 216.48 133.24 223.38
  Q 110.06 235.17 90.04 244.61
  Q 70.97 253.60 50.42 258.27
  Q 35.15 261.75 20.14 260.97
  A 1.58 1.58 0.0 0 0 18.51 262.24
  L 16.42 272.80
  A 0.73 0.72 -84.9 0 0 17.14 273.67"
/>
<path stroke="#8eb89a" vector-effect="non-scaling-stroke" d="
  M 138.21 243.43
  Q 121.07 251.22 101.47 260.33
  Q 82.52 269.14 61.18 275.23
  Q 46.73 279.35 31.97 280.94
  A 1.96 1.96 0.0 0 0 30.30 282.33
  Q 28.85 287.17 28.44 292.39
  Q 28.37 293.29 29.26 293.12
  Q 35.64 291.86 41.99 290.67
  Q 71.58 285.13 100.98 272.89
  Q 120.84 264.62 141.29 255.80
  Q 146.73 253.45 152.99 251.37
  A 1.37 1.36 -8.3 0 0 153.93 250.12
  L 154.34 238.08
  A 0.89 0.89 0.0 0 0 153.13 237.22
  Q 144.99 240.35 138.21 243.43"
/>
<path stroke="#8eb89a" vector-effect="non-scaling-stroke" d="
  M 90.74 287.36
  Q 90.91 286.73 90.41 286.38
  A 1.71 1.70 -36.4 0 0 88.87 286.15
  Q 64.61 294.32 40.68 298.86
  Q 38.46 299.28 38.12 301.47
  Q 37.48 305.52 36.51 309.56
  A 0.65 0.65 0.0 0 0 37.26 310.35
  Q 63.35 305.45 88.02 298.37
  C 89.26 298.01 90.13 296.96 90.14 295.64
  C 90.18 293.17 90.11 289.72 90.74 287.36"
/>
</g>
<path fill="none" d="
  M 0.00 0.00
  L 217.00 0.00
  L 217.00 336.00
  L 0.00 336.00
  L 0.00 0.00
  Z
  M 155.42 28.65
  A 0.90 0.90 0.0 0 0 154.74 29.47
  L 154.11 38.69
  A 0.90 0.90 0.0 0 0 155.23 39.63
  L 178.30 33.80
  A 0.90 0.90 0.0 0 0 178.98 32.95
  L 179.23 24.07
  A 0.90 0.90 0.0 0 0 178.12 23.17
  L 155.42 28.65
  Z
  M 132.80 66.86
  C 148.49 60.64 164.14 55.56 180.70 52.53
  Q 182.66 52.17 182.75 50.11
  Q 182.93 46.25 182.94 42.21
  Q 182.95 41.00 181.77 41.23
  Q 157.64 45.89 133.42 54.53
  Q 132.72 54.78 132.44 55.46
  Q 132.11 56.25 132.05 57.13
  Q 131.76 61.82 131.73 66.13
  A 0.78 0.78 0.0 0 0 132.80 66.86
  Z
  M 124.46 91.68
  Q 125.72 91.37 126.89 90.78
  C 146.34 80.91 168.04 72.84 189.39 71.26
  A 1.45 1.45 0.0 0 0 190.73 69.86
  L 191.08 60.28
  A 0.77 0.76 -1.9 0 0 190.23 59.49
  C 167.69 61.97 146.34 69.37 125.36 78.92
  A 1.90 1.90 0.0 0 0 124.25 80.55
  L 123.69 91.05
  A 0.62 0.62 0.0 0 0 124.46 91.68
  Z
  M 127.87 110.67
  Q 128.88 110.37 129.08 112.73
  Q 129.17 113.81 128.85 114.98
  Q 128.26 117.14 127.24 119.51
  L 119.00 123.67
  A 2.20 2.18 82.3 0 0 117.85 125.19
  Q 116.72 130.89 117.67 136.99
  L 118.40 144.94
  Q 106.78 151.35 94.72 157.66
  C 90.34 159.95 91.53 166.82 91.64 170.80
  A 0.76 0.76 0.0 0 0 92.67 171.48
  Q 96.50 170.02 99.68 167.97
  C 102.16 166.36 104.82 165.22 107.35 163.77
  Q 123.51 154.46 138.78 146.82
  Q 149.18 141.61 156.52 138.95
  Q 172.59 133.13 189.37 132.63
  A 2.13 2.12 4.8 0 0 191.39 130.93
  Q 192.64 124.63 191.31 120.05
  Q 189.05 117.95 189.21 114.74
  Q 189.24 114.25 189.57 113.87
  Q 190.50 112.83 191.71 112.14
  C 193.59 112.59 194.77 112.08 195.21 110.11
  Q 196.66 103.62 194.23 99.33
  L 190.58 88.90
  L 190.90 80.68
  Q 190.97 78.93 189.23 79.14
  Q 173.62 80.97 160.23 85.05
  Q 147.19 89.01 129.62 97.59
  Q 128.91 97.94 128.39 98.54
  Q 127.82 99.20 127.74 100.00
  Q 127.48 102.90 127.87 110.67
  Z
  M 29.23 211.23
  C 44.02 212.71 59.58 208.60 73.25 202.67
  C 91.47 194.77 108.27 184.87 125.76 175.24
  C 139.48 167.70 154.34 160.60 169.10 156.96
  Q 181.14 153.99 195.46 154.97
  A 1.55 1.55 0.0 0 0 197.11 153.49
  L 197.55 143.63
  A 1.65 1.65 0.0 0 0 196.12 141.93
  C 183.86 140.30 170.18 142.93 158.58 147.22
  Q 143.06 152.97 126.64 162.14
  Q 110.10 171.38 93.50 180.50
  Q 73.94 191.24 54.94 196.20
  Q 42.61 199.41 30.26 198.17
  A 1.24 1.23 -81.2 0 0 28.93 199.15
  L 26.76 209.76
  A 1.00 1.00 0.0 0 0 27.48 210.92
  Q 28.33 211.14 29.23 211.23
  Z
  M 152.18 171.14
  Q 136.06 177.80 121.31 186.06
  C 99.84 198.08 77.88 210.99 54.57 217.52
  Q 35.85 222.77 18.26 218.12
  A 1.55 1.54 -76.5 0 0 16.35 219.30
  L 14.36 228.76
  A 1.60 1.60 0.0 0 0 15.54 230.64
  Q 28.28 233.79 41.63 231.89
  C 59.14 229.39 76.61 222.67 92.25 214.50
  Q 111.63 204.36 130.51 194.21
  C 137.45 190.48 144.91 187.12 152.38 183.95
  C 169.52 176.70 187.85 173.46 205.73 179.29
  A 1.33 1.33 0.0 0 0 207.46 178.21
  Q 208.11 173.52 207.84 168.72
  Q 207.70 166.27 204.99 165.54
  C 187.03 160.63 169.08 164.15 152.18 171.14
  Z
  M 45.29 239.59
  Q 32.67 241.55 20.33 240.12
  A 1.38 1.38 0.0 0 0 18.83 241.19
  Q 17.67 246.49 17.18 251.91
  Q 17.05 253.24 18.39 253.10
  C 20.88 252.83 23.27 253.33 25.77 253.32
  Q 46.63 253.24 66.54 246.07
  Q 85.49 239.25 96.97 233.39
  Q 114.39 224.50 133.29 215.15
  C 146.47 208.64 156.43 204.23 169.10 201.03
  Q 184.71 197.09 200.25 200.34
  A 1.18 1.18 0.0 0 0 201.67 199.22
  Q 201.81 193.63 201.76 188.63
  Q 201.75 186.89 199.96 186.56
  Q 185.37 183.84 172.36 186.74
  C 157.79 189.98 143.87 196.09 130.82 203.03
  Q 111.34 213.39 93.42 222.67
  C 78.60 230.35 61.59 237.05 45.29 239.59
  Z
  M 17.14 273.67
  Q 41.69 273.12 64.79 265.91
  C 90.12 258.01 114.46 245.32 139.31 233.89
  C 156.51 225.97 174.04 220.16 193.12 220.78
  A 0.84 0.84 0.0 0 0 193.99 219.97
  L 194.31 208.76
  A 1.16 1.16 0.0 0 0 193.23 207.57
  C 182.44 206.77 171.95 208.26 161.54 211.66
  Q 146.82 216.48 133.24 223.38
  Q 110.06 235.17 90.04 244.61
  Q 70.97 253.60 50.42 258.27
  Q 35.15 261.75 20.14 260.97
  A 1.58 1.58 0.0 0 0 18.51 262.24
  L 16.42 272.80
  A 0.73 0.72 -84.9 0 0 17.14 273.67
  Z
  M 138.21 243.43
  Q 121.07 251.22 101.47 260.33
  Q 82.52 269.14 61.18 275.23
  Q 46.73 279.35 31.97 280.94
  A 1.96 1.96 0.0 0 0 30.30 282.33
  Q 28.85 287.17 28.44 292.39
  Q 28.37 293.29 29.26 293.12
  Q 35.64 291.86 41.99 290.67
  Q 71.58 285.13 100.98 272.89
  Q 120.84 264.62 141.29 255.80
  Q 146.73 253.45 152.99 251.37
  A 1.37 1.36 -8.3 0 0 153.93 250.12
  L 154.34 238.08
  A 0.89 0.89 0.0 0 0 153.13 237.22
  Q 144.99 240.35 138.21 243.43
  Z
  M 90.74 287.36
  Q 90.91 286.73 90.41 286.38
  A 1.71 1.70 -36.4 0 0 88.87 286.15
  Q 64.61 294.32 40.68 298.86
  Q 38.46 299.28 38.12 301.47
  Q 37.48 305.52 36.51 309.56
  A 0.65 0.65 0.0 0 0 37.26 310.35
  Q 63.35 305.45 88.02 298.37
  C 89.26 298.01 90.13 296.96 90.14 295.64
  C 90.18 293.17 90.11 289.72 90.74 287.36
  Z"
/>
<g>
<path fill="#16498b" d="
  M 155.42 28.65
  L 178.12 23.17
  A 0.90 0.90 0.0 0 1 179.23 24.07
  L 178.98 32.95
  A 0.90 0.90 0.0 0 1 178.30 33.80
  L 155.23 39.63
  A 0.90 0.90 0.0 0 1 154.11 38.69
  L 154.74 29.47
  A 0.90 0.90 0.0 0 1 155.42 28.65
  Z"
/>
<path fill="#16498b" d="
  M 132.80 66.86
  A 0.78 0.78 0.0 0 1 131.73 66.13
  Q 131.76 61.82 132.05 57.13
  Q 132.11 56.25 132.44 55.46
  Q 132.72 54.78 133.42 54.53
  Q 157.64 45.89 181.77 41.23
  Q 182.95 41.00 182.94 42.21
  Q 182.93 46.25 182.75 50.11
  Q 182.66 52.17 180.70 52.53
  C 164.14 55.56 148.49 60.64 132.80 66.86
  Z"
/>
<path fill="#16498b" d="
  M 124.46 91.68
  A 0.62 0.62 0.0 0 1 123.69 91.05
  L 124.25 80.55
  A 1.90 1.90 0.0 0 1 125.36 78.92
  C 146.34 69.37 167.69 61.97 190.23 59.49
  A 0.77 0.76 -1.9 0 1 191.08 60.28
  L 190.73 69.86
  A 1.45 1.45 0.0 0 1 189.39 71.26
  C 168.04 72.84 146.34 80.91 126.89 90.78
  Q 125.72 91.37 124.46 91.68
  Z"
/>
<path fill="#eeb930" d="
  M 190.58 88.90
  Q 190.99 91.22 187.35 91.51
  Q 179.21 92.16 171.27 94.07
  Q 159.45 96.91 148.16 101.39
  Q 141.51 104.03 127.87 110.67
  Q 127.48 102.90 127.74 100.00
  Q 127.82 99.20 128.39 98.54
  Q 128.91 97.94 129.62 97.59
  Q 147.19 89.01 160.23 85.05
  Q 173.62 80.97 189.23 79.14
  Q 190.97 78.93 190.90 80.68
  L 190.58 88.90
  Z"
/>
<path fill="#feffce" d="
  M 190.58 88.90
  L 194.23 99.33
  Q 176.59 100.06 162.01 104.81
  Q 145.60 110.17 127.24 119.51
  Q 128.26 117.14 128.85 114.98
  Q 129.17 113.81 129.08 112.73
  Q 128.88 110.37 127.87 110.67
  Q 141.51 104.03 148.16 101.39
  Q 159.45 96.91 171.27 94.07
  Q 179.21 92.16 187.35 91.51
  Q 190.99 91.22 190.58 88.90
  Z"
/>
<path fill="#eeb930" d="
  M 194.23 99.33
  Q 196.66 103.62 195.21 110.11
  C 194.77 112.08 193.59 112.59 191.71 112.14
  Q 186.62 111.73 181.49 112.39
  Q 172.85 113.49 164.52 116.05
  Q 146.72 121.53 130.31 130.34
  Q 124.39 133.51 117.67 136.99
  Q 116.72 130.89 117.85 125.19
  A 2.20 2.18 82.3 0 1 119.00 123.67
  L 127.24 119.51
  Q 145.60 110.17 162.01 104.81
  Q 176.59 100.06 194.23 99.33
  Z"
/>
<path fill="#feffce" d="
  M 191.71 112.14
  Q 190.50 112.83 189.57 113.87
  Q 189.24 114.25 189.21 114.74
  Q 189.05 117.95 191.31 120.05
  Q 176.23 120.16 164.50 124.03
  C 147.67 129.59 135.73 135.80 118.40 144.94
  L 117.67 136.99
  Q 124.39 133.51 130.31 130.34
  Q 146.72 121.53 164.52 116.05
  Q 172.85 113.49 181.49 112.39
  Q 186.62 111.73 191.71 112.14
  Z"
/>
<path fill="#eeb930" d="
  M 191.31 120.05
  Q 192.64 124.63 191.39 130.93
  A 2.13 2.12 4.8 0 1 189.37 132.63
  Q 172.59 133.13 156.52 138.95
  Q 149.18 141.61 138.78 146.82
  Q 123.51 154.46 107.35 163.77
  C 104.82 165.22 102.16 166.36 99.68 167.97
  Q 96.50 170.02 92.67 171.48
  A 0.76 0.76 0.0 0 1 91.64 170.80
  C 91.53 166.82 90.34 159.95 94.72 157.66
  Q 106.78 151.35 118.40 144.94
  C 135.73 135.80 147.67 129.59 164.50 124.03
  Q 176.23 120.16 191.31 120.05
  Z"
/>
<path fill="#d6482f" d="
  M 29.23 211.23
  Q 28.33 211.14 27.48 210.92
  A 1.00 1.00 0.0 0 1 26.76 209.76
  L 28.93 199.15
  A 1.24 1.23 -81.2 0 1 30.26 198.17
  Q 42.61 199.41 54.94 196.20
  Q 73.94 191.24 93.50 180.50
  Q 110.10 171.38 126.64 162.14
  Q 143.06 152.97 158.58 147.22
  C 170.18 142.93 183.86 140.30 196.12 141.93
  A 1.65 1.65 0.0 0 1 197.55 143.63
  L 197.11 153.49
  A 1.55 1.55 0.0 0 1 195.46 154.97
  Q 181.14 153.99 169.10 156.96
  C 154.34 160.60 139.48 167.70 125.76 175.24
  C 108.27 184.87 91.47 194.77 73.25 202.67
  C 59.58 208.60 44.02 212.71 29.23 211.23
  Z"
/>
<path fill="#d6482f" d="
  M 152.18 171.14
  C 169.08 164.15 187.03 160.63 204.99 165.54
  Q 207.70 166.27 207.84 168.72
  Q 208.11 173.52 207.46 178.21
  A 1.33 1.33 0.0 0 1 205.73 179.29
  C 187.85 173.46 169.52 176.70 152.38 183.95
  C 144.91 187.12 137.45 190.48 130.51 194.21
  Q 111.63 204.36 92.25 214.50
  C 76.61 222.67 59.14 229.39 41.63 231.89
  Q 28.28 233.79 15.54 230.64
  A 1.60 1.60 0.0 0 1 14.36 228.76
  L 16.35 219.30
  A 1.55 1.54 -76.5 0 1 18.26 218.12
  Q 35.85 222.77 54.57 217.52
  C 77.88 210.99 99.84 198.08 121.31 186.06
  Q 136.06 177.80 152.18 171.14
  Z"
/>
<path fill="#d6482f" d="
  M 45.29 239.59
  C 61.59 237.05 78.60 230.35 93.42 222.67
  Q 111.34 213.39 130.82 203.03
  C 143.87 196.09 157.79 189.98 172.36 186.74
  Q 185.37 183.84 199.96 186.56
  Q 201.75 186.89 201.76 188.63
  Q 201.81 193.63 201.67 199.22
  A 1.18 1.18 0.0 0 1 200.25 200.34
  Q 184.71 197.09 169.10 201.03
  C 156.43 204.23 146.47 208.64 133.29 215.15
  Q 114.39 224.50 96.97 233.39
  Q 85.49 239.25 66.54 246.07
  Q 46.63 253.24 25.77 253.32
  C 23.27 253.33 20.88 252.83 18.39 253.10
  Q 17.05 253.24 17.18 251.91
  Q 17.67 246.49 18.83 241.19
  A 1.38 1.38 0.0 0 1 20.33 240.12
  Q 32.67 241.55 45.29 239.59
  Z"
/>
<path fill="#1c7135" d="
  M 17.14 273.67
  A 0.73 0.72 -84.9 0 1 16.42 272.80
  L 18.51 262.24
  A 1.58 1.58 0.0 0 1 20.14 260.97
  Q 35.15 261.75 50.42 258.27
  Q 70.97 253.60 90.04 244.61
  Q 110.06 235.17 133.24 223.38
  Q 146.82 216.48 161.54 211.66
  C 171.95 208.26 182.44 206.77 193.23 207.57
  A 1.16 1.16 0.0 0 1 194.31 208.76
  L 193.99 219.97
  A 0.84 0.84 0.0 0 1 193.12 220.78
  C 174.04 220.16 156.51 225.97 139.31 233.89
  C 114.46 245.32 90.12 258.01 64.79 265.91
  Q 41.69 273.12 17.14 273.67
  Z"
/>
<path fill="#1c7135" d="
  M 138.21 243.43
  Q 144.99 240.35 153.13 237.22
  A 0.89 0.89 0.0 0 1 154.34 238.08
  L 153.93 250.12
  A 1.37 1.36 -8.3 0 1 152.99 251.37
  Q 146.73 253.45 141.29 255.80
  Q 120.84 264.62 100.98 272.89
  Q 71.58 285.13 41.99 290.67
  Q 35.64 291.86 29.26 293.12
  Q 28.37 293.29 28.44 292.39
  Q 28.85 287.17 30.30 282.33
  A 1.96 1.96 0.0 0 1 31.97 280.94
  Q 46.73 279.35 61.18 275.23
  Q 82.52 269.14 101.47 260.33
  Q 121.07 251.22 138.21 243.43
  Z"
/>
<path fill="#1c7135" d="
  M 90.74 287.36
  C 90.11 289.72 90.18 293.17 90.14 295.64
  C 90.13 296.96 89.26 298.01 88.02 298.37
  Q 63.35 305.45 37.26 310.35
  A 0.65 0.65 0.0 0 1 36.51 309.56
  Q 37.48 305.52 38.12 301.47
  Q 38.46 299.28 40.68 298.86
  Q 64.61 294.32 88.87 286.15
  A 1.71 1.70 -36.4 0 1 90.41 286.38
  Q 90.91 286.73 90.74 287.36
  Z"
/>
</g>
</svg>
